<svg data-v-1084b650="" xmlns="http://www.w3.org/2000/svg" viewBox="0 0 300 300"><!----> <!----> <rect data-v-1084b650="" fill="#0B173D" x="0" y="0" width="300px" height="300px" class="logo-background-square"></rect> <!----> <g data-v-1084b650="" id="8786f5da-60a8-ed99-070a-3821d39b747a" fill="#D1A103" transform="matrix(5.199999999999998,0,0,5.199999999999998,35.5479943364859,157.3657885551453)"><path d="M1.60 11.27L1.60 7.87L0.14 7.87L0.29 6.86L0.29 6.86Q0.66 6.73 0.92 6.62L0.92 6.62L0.92 6.62Q1.19 6.50 1.39 6.37L1.39 6.37L1.39 6.37Q1.59 6.23 1.75 6.08L1.75 6.08L1.75 6.08Q1.90 5.92 2.04 5.70L2.04 5.70L2.04 5.70Q2.18 5.49 2.32 5.22L2.32 5.22L2.32 5.22Q2.47 4.94 2.65 4.57L2.65 4.57L3.83 4.57L3.83 6.40L6.39 6.40L6.06 7.87L3.97 7.87L3.97 10.96L3.97 10.96Q3.97 11.64 4.32 11.92L4.32 11.92L4.32 11.92Q4.68 12.19 5.33 12.19L5.33 12.19L5.33 12.19Q5.59 12.19 5.86 12.14L5.86 12.14L5.86 12.14Q6.13 12.10 6.38 12.00L6.38 12.00L6.38 13.02L6.38 13.02Q5.85 13.41 5.21 13.59L5.21 13.59L5.21 13.59Q4.57 13.78 3.94 13.78L3.94 13.78L3.94 13.78Q3.31 13.78 2.86 13.61L2.86 13.61L2.86 13.61Q2.42 13.43 2.14 13.10L2.14 13.10L2.14 13.10Q1.86 12.78 1.73 12.31L1.73 12.31L1.73 12.31Q1.60 11.85 1.60 11.27L1.60 11.27ZM11.14 13.78L11.14 13.78L11.14 13.78Q10.21 13.78 9.51 13.49L9.51 13.49L9.51 13.49Q8.80 13.20 8.34 12.71L8.34 12.71L8.34 12.71Q7.88 12.22 7.65 11.58L7.65 11.58L7.65 11.58Q7.42 10.93 7.42 10.22L7.42 10.22L7.42 10.22Q7.42 9.39 7.72 8.67L7.72 8.67L7.72 8.67Q8.02 7.94 8.57 7.41L8.57 7.41L8.57 7.41Q9.12 6.88 9.90 6.57L9.90 6.57L9.90 6.57Q10.68 6.26 11.63 6.26L11.63 6.26L11.63 6.26Q12.56 6.26 13.27 6.55L13.27 6.55L13.27 6.55Q13.97 6.84 14.43 7.32L14.43 7.32L14.43 7.32Q14.90 7.81 15.13 8.46L15.13 8.46L15.13 8.46Q15.37 9.11 15.37 9.84L15.37 9.84L15.37 9.84Q15.37 10.68 15.06 11.41L15.06 11.41L15.06 11.41Q14.75 12.13 14.19 12.66L14.19 12.66L14.19 12.66Q13.64 13.19 12.86 13.48L12.86 13.48L12.86 13.48Q12.09 13.78 11.14 13.78ZM11.44 12.31L11.44 12.31L11.44 12.31Q11.76 12.31 12.03 12.17L12.03 12.17L12.03 12.17Q12.30 12.04 12.50 11.76L12.50 11.76L12.50 11.76Q12.69 11.48 12.81 11.07L12.81 11.07L12.81 11.07Q12.92 10.66 12.92 10.12L12.92 10.12L12.92 10.12Q12.92 9.60 12.81 9.17L12.81 9.17L12.81 9.17Q12.71 8.73 12.51 8.41L12.51 8.41L12.51 8.41Q12.30 8.09 12.01 7.91L12.01 7.91L12.01 7.91Q11.72 7.73 11.35 7.73L11.35 7.73L11.35 7.73Q11.02 7.73 10.75 7.88L10.75 7.88L10.75 7.88Q10.47 8.03 10.28 8.31L10.28 8.31L10.28 8.31Q10.08 8.59 9.97 9.00L9.97 9.00L9.97 9.00Q9.86 9.41 9.86 9.94L9.86 9.94L9.86 9.94Q9.86 10.48 9.97 10.92L9.97 10.92L9.97 10.92Q10.08 11.35 10.29 11.67L10.29 11.67L10.29 11.67Q10.49 11.98 10.78 12.14L10.78 12.14L10.78 12.14Q11.07 12.31 11.44 12.31ZM17.57 11.27L17.57 7.87L16.11 7.87L16.26 6.86L16.26 6.86Q16.63 6.73 16.89 6.62L16.89 6.62L16.89 6.62Q17.16 6.50 17.36 6.37L17.36 6.37L17.36 6.37Q17.56 6.23 17.72 6.08L17.72 6.08L17.72 6.08Q17.87 5.92 18.01 5.70L18.01 5.70L18.01 5.70Q18.15 5.49 18.29 5.22L18.29 5.22L18.29 5.22Q18.44 4.94 18.62 4.57L18.62 4.57L19.80 4.57L19.80 6.40L22.36 6.40L22.03 7.87L19.94 7.87L19.94 10.96L19.94 10.96Q19.94 11.64 20.29 11.92L20.29 11.92L20.29 11.92Q20.64 12.19 21.30 12.19L21.30 12.19L21.30 12.19Q21.56 12.19 21.83 12.14L21.83 12.14L21.83 12.14Q22.10 12.10 22.35 12.00L22.35 12.00L22.35 13.02L22.35 13.02Q21.82 13.41 21.18 13.59L21.18 13.59L21.18 13.59Q20.54 13.78 19.91 13.78L19.91 13.78L19.91 13.78Q19.28 13.78 18.83 13.61L18.83 13.61L18.83 13.61Q18.39 13.43 18.11 13.10L18.11 13.10L18.11 13.10Q17.83 12.78 17.70 12.31L17.70 12.31L17.70 12.31Q17.57 11.85 17.57 11.27L17.57 11.27ZM30.17 11.87L30.17 12.89L30.17 12.89Q29.80 13.15 29.41 13.32L29.41 13.32L29.41 13.32Q29.03 13.49 28.64 13.60L28.64 13.60L28.64 13.60Q28.26 13.70 27.89 13.74L27.89 13.74L27.89 13.74Q27.52 13.78 27.18 13.78L27.18 13.78L27.18 13.78Q26.30 13.78 25.60 13.55L25.60 13.55L25.60 13.55Q24.90 13.31 24.40 12.87L24.40 12.87L24.40 12.87Q23.91 12.42 23.65 11.77L23.65 11.77L23.65 11.77Q23.39 11.12 23.39 10.29L23.39 10.29L23.39 10.29Q23.39 9.34 23.71 8.60L23.71 8.60L23.71 8.60Q24.04 7.85 24.59 7.33L24.59 7.33L24.59 7.33Q25.14 6.82 25.87 6.54L25.87 6.54L25.87 6.54Q26.59 6.26 27.38 6.26L27.38 6.26L27.38 6.26Q28.07 6.26 28.65 6.47L28.65 6.47L28.65 6.47Q29.22 6.69 29.64 7.10L29.64 7.10L29.64 7.10Q30.06 7.51 30.30 8.12L30.30 8.12L30.30 8.12Q30.53 8.74 30.53 9.54L30.53 9.54L30.53 9.54Q30.53 9.80 30.51 10.01L30.51 10.01L30.51 10.01Q30.48 10.23 30.45 10.38L30.45 10.38L25.83 10.38L25.83 10.38Q25.83 10.86 25.99 11.20L25.99 11.20L25.99 11.20Q26.16 11.54 26.47 11.76L26.47 11.76L26.47 11.76Q26.78 11.98 27.22 12.09L27.22 12.09L27.22 12.09Q27.66 12.19 28.20 12.19L28.20 12.19L28.20 12.19Q28.39 12.19 28.63 12.17L28.63 12.17L28.63 12.17Q28.86 12.16 29.12 12.12L29.12 12.12L29.12 12.12Q29.37 12.09 29.64 12.03L29.64 12.03L29.64 12.03Q29.91 11.97 30.17 11.87L30.17 11.87ZM25.83 9.54L28.38 9.54L28.38 9.54Q28.38 9.07 28.28 8.73L28.28 8.73L28.28 8.73Q28.19 8.39 28.03 8.17L28.03 8.17L28.03 8.17Q27.86 7.94 27.64 7.84L27.64 7.84L27.64 7.84Q27.41 7.73 27.15 7.73L27.15 7.73L27.15 7.73Q26.85 7.73 26.61 7.85L26.61 7.85L26.61 7.85Q26.37 7.98 26.19 8.21L26.19 8.21L26.19 8.21Q26.02 8.44 25.92 8.78L25.92 8.78L25.92 8.78Q25.83 9.11 25.83 9.54L25.83 9.54ZM32.16 13.64L32.16 6.40L34.17 6.40L34.45 7.59L34.45 7.59Q34.70 7.37 34.99 7.14L34.99 7.14L34.99 7.14Q35.27 6.90 35.59 6.71L35.59 6.71L35.59 6.71Q35.92 6.51 36.26 6.39L36.26 6.39L36.26 6.39Q36.61 6.26 36.98 6.26L36.98 6.26L36.98 6.26Q37.36 6.26 37.68 6.37L37.68 6.37L37.68 6.37Q38.00 6.48 38.26 6.67L38.26 6.67L38.26 6.67Q38.51 6.86 38.70 7.11L38.70 7.11L38.70 7.11Q38.89 7.36 39.00 7.63L39.00 7.63L39.00 7.63Q39.28 7.40 39.57 7.15L39.57 7.15L39.57 7.15Q39.87 6.91 40.19 6.71L40.19 6.71L40.19 6.71Q40.51 6.51 40.87 6.39L40.87 6.39L40.87 6.39Q41.23 6.26 41.64 6.26L41.64 6.26L41.64 6.26Q42.16 6.26 42.57 6.46L42.57 6.46L42.57 6.46Q42.99 6.66 43.28 7L43.28 7L43.28 7Q43.57 7.34 43.73 7.80L43.73 7.80L43.73 7.80Q43.88 8.26 43.88 8.78L43.88 8.78L43.88 13.64L41.50 13.64L41.50 9.11L41.50 9.11Q41.50 8.82 41.43 8.59L41.43 8.59L41.43 8.59Q41.35 8.35 41.21 8.19L41.21 8.19L41.21 8.19Q41.08 8.03 40.89 7.95L40.89 7.95L40.89 7.95Q40.71 7.86 40.48 7.86L40.48 7.86L40.48 7.86Q40.13 7.86 39.82 8.05L39.82 8.05L39.82 8.05Q39.52 8.23 39.19 8.52L39.19 8.52L39.19 8.52Q39.20 8.58 39.20 8.64L39.20 8.64L39.20 8.64Q39.20 8.71 39.20 8.78L39.20 8.78L39.20 13.64L36.83 13.64L36.83 9.11L36.83 9.11Q36.83 8.52 36.54 8.19L36.54 8.19L36.54 8.19Q36.26 7.86 35.81 7.86L35.81 7.86L35.81 7.86Q35.46 7.86 35.16 8.05L35.16 8.05L35.16 8.05Q34.86 8.23 34.54 8.51L34.54 8.51L34.54 13.64L32.16 13.64Z"></path></g> <!----> <g data-v-1084b650="" id="1bfd69e8-70d6-abeb-8d4d-913e784f52ed" stroke="none" fill="#D1A103" transform="matrix(0.3955553970412834,0,0,0.3955553970412834,91.53073743689498,57.454173867413225)"><svg xmlns="http://www.w3.org/2000/svg" xmlns:xlink="http://www.w3.org/1999/xlink" version="1.1" x="0px" y="0px" viewBox="0 0 100 100" enable-background="new 0 0 100 100" xml:space="preserve"><path d="M38.956,79.803c0.833,1.947,0.816,3.369,0.729,3.792c-0.188,0.917-0.722,1.818-1.903,1.838c0,0,0.257-0.861,0.257-1.331  c0-2.46-1.99-4.45-4.45-4.45c-0.91,0-1.733,0.305-2.428,0.786l0.517,1.23c0,0-0.597-0.016-1.221-0.646l-0.504-0.624  c-0.189-0.234-0.192-0.568-0.006-0.805l0.644-0.824c0.459-0.587,1.177-0.909,1.92-0.863l1.968,0.124  c0.761,0.048,1.496-0.283,1.965-0.884l2.384-4.879l2.299,2.207l-2.016,3.814C38.788,78.744,38.736,79.29,38.956,79.803z   M32.365,76.844c-0.465-0.029-0.912,0.1-1.3,0.334l-0.656-3.019l-2.755,0.639l-0.451-1.949l2.073-0.48  c-0.642-1.006-1.272-2.246-1.49-2.896c-0.333-0.991-0.3-1.948,0.093-2.693c0.313-0.593,0.841-1.021,1.489-1.204  c0.713-0.202,1.437-0.095,2.041,0.302c0.663,0.436,1.094,1.168,1.213,2.063c0.115,0.863,0.074,2.382-0.063,3.656l2.031-0.486  l0.466,1.945l-2.698,0.646l0.692,3.186L32.365,76.844z M30.638,68.204c-0.042-0.31-0.158-0.542-0.329-0.654  c-0.074-0.048-0.155-0.072-0.243-0.072c-0.049,0-0.101,0.008-0.155,0.022c-0.124,0.035-0.206,0.102-0.265,0.213  c-0.131,0.249-0.119,0.67,0.034,1.125c0.133,0.396,0.526,1.186,0.949,1.914C30.701,69.795,30.714,68.776,30.638,68.204z   M62.364,79.803c-0.833,1.947-0.816,3.369-0.729,3.792c0.188,0.917,0.722,1.818,1.903,1.838c0,0-0.257-0.861-0.257-1.331  c0-2.46,1.99-4.45,4.45-4.45c0.91,0,1.733,0.305,2.428,0.786l-0.517,1.23c0,0,0.597-0.016,1.221-0.646l0.504-0.624  c0.189-0.234,0.192-0.568,0.006-0.805l-0.644-0.824c-0.459-0.587-1.177-0.909-1.92-0.863l-1.968,0.124  c-0.761,0.048-1.496-0.283-1.965-0.884l-2.384-4.879l-2.299,2.207l2.016,3.814C62.532,78.744,62.584,79.29,62.364,79.803z   M59.896,49.79c-0.131-1.479-0.545-3.017-0.988-4.404c7.732-2.189,13.852-7.733,16.435-14.884c0.58,0.62,1.223,1.874,0.99,4.354  C75.816,40.292,69.574,47.153,59.896,49.79z M72.655,38.412l0.394,0.228c0.157,0.091,0.33,0.134,0.499,0.134  c0.346,0,0.682-0.179,0.867-0.5c0.276-0.479,0.112-1.09-0.366-1.366l-0.394-0.228c-0.479-0.277-1.09-0.112-1.366,0.366  C72.013,37.524,72.176,38.135,72.655,38.412z M70.316,41.559l0.349,0.292c0.187,0.157,0.415,0.233,0.641,0.233  c0.286,0,0.57-0.122,0.768-0.358c0.354-0.424,0.298-1.055-0.125-1.408L71.6,40.026c-0.423-0.356-1.055-0.299-1.409,0.125  C69.836,40.575,69.893,41.206,70.316,41.559z M67.298,43.721l0.248,0.381c0.191,0.294,0.512,0.454,0.839,0.454  c0.187,0,0.376-0.053,0.545-0.162c0.462-0.302,0.593-0.921,0.292-1.384l-0.248-0.381c-0.301-0.462-0.921-0.593-1.384-0.292  C67.128,42.639,66.997,43.258,67.298,43.721z M64.134,45.536l0.179,0.418c0.163,0.379,0.532,0.605,0.919,0.605  c0.132,0,0.266-0.026,0.395-0.081c0.507-0.219,0.742-0.807,0.523-1.313l-0.179-0.418c-0.219-0.508-0.808-0.74-1.314-0.524  C64.15,44.441,63.916,45.029,64.134,45.536z M60.715,46.915l0.134,0.435c0.133,0.43,0.528,0.705,0.955,0.705  c0.098,0,0.197-0.015,0.296-0.045c0.527-0.163,0.823-0.723,0.66-1.25l-0.134-0.435c-0.164-0.529-0.724-0.821-1.251-0.66  C60.848,45.828,60.552,46.387,60.715,46.915z M22.813,24.015c0.31,0.457,0.191,1.079-0.266,1.389  c-0.172,0.117-0.367,0.173-0.561,0.173c-0.32,0-0.635-0.153-0.829-0.438c-0.589-0.869-1-1.786-1.262-2.714  c-0.327,0.363-0.659,0.781-0.98,1.261c0.044,0.058,0.077,0.116,0.123,0.174c0.516,0.663,1.224,1.318,2.113,1.959  c0.448,0.323,0.549,0.948,0.226,1.396c-0.195,0.271-0.501,0.415-0.812,0.415c-0.203,0-0.407-0.062-0.584-0.188  c-0.834-0.602-1.535-1.227-2.104-1.862c-0.21,0.474-0.405,0.984-0.576,1.538c0.797,0.62,1.716,1.162,2.757,1.603  c0.508,0.216,0.746,0.803,0.53,1.312c-0.162,0.381-0.532,0.609-0.921,0.609c-0.13,0-0.263-0.025-0.39-0.079  c-0.898-0.381-1.717-0.833-2.468-1.338c-0.092,0.55-0.163,1.131-0.209,1.746c0.152,0.084,0.287,0.17,0.453,0.248  c0.774,0.378,1.623,0.692,2.532,0.94c0.533,0.146,0.847,0.695,0.701,1.229c-0.122,0.444-0.525,0.736-0.964,0.736  c-0.087,0-0.176-0.012-0.264-0.035c-0.893-0.244-1.726-0.557-2.506-0.911c0.016,0.6,0.052,1.195,0.118,1.785  c0.879,0.3,1.844,0.497,2.889,0.574c0.551,0.04,0.964,0.52,0.923,1.07c-0.039,0.526-0.477,0.927-0.996,0.927  c-0.025,0-0.049-0.001-0.075-0.003c-0.834-0.062-1.627-0.194-2.382-0.381c0.123,0.562,0.273,1.116,0.441,1.665  c0.851,0.112,1.74,0.121,2.656,0.014c0.549-0.066,1.045,0.329,1.108,0.878c0.063,0.549-0.33,1.045-0.878,1.108  c-0.522,0.061-1.04,0.091-1.549,0.091c-0.2,0-0.396-0.018-0.594-0.027c0.215,0.516,0.444,1.026,0.698,1.527  c0.765-0.056,1.575-0.179,2.407-0.412c0.532-0.15,1.083,0.16,1.233,0.692c0.149,0.532-0.161,1.084-0.693,1.233  c-0.634,0.178-1.256,0.31-1.862,0.4c0.294,0.467,0.611,0.923,0.939,1.373c0.714-0.181,1.428-0.414,2.128-0.742  c0.501-0.234,1.096-0.02,1.33,0.481c0.234,0.5,0.019,1.095-0.481,1.329c-0.533,0.25-1.073,0.463-1.617,0.641  c0.368,0.425,0.752,0.84,1.151,1.246c0.504-0.218,1.125-0.53,1.831-0.993c0.461-0.304,1.082-0.176,1.385,0.287  c0.303,0.462,0.175,1.082-0.287,1.385c-0.492,0.323-0.945,0.575-1.366,0.79c0.42,0.367,0.85,0.727,1.296,1.074  c0.543-0.328,1.061-0.685,1.546-1.112c0.415-0.367,1.045-0.326,1.412,0.089c0.365,0.415,0.325,1.047-0.089,1.411  c-0.36,0.317-0.733,0.603-1.117,0.873c0.468,0.314,0.944,0.622,1.436,0.915c0.458-0.368,0.901-0.766,1.305-1.221  c0.366-0.413,0.998-0.45,1.412-0.084c0.413,0.367,0.45,0.999,0.083,1.412c-0.293,0.33-0.605,0.635-0.924,0.928  c0.508,0.261,1.024,0.515,1.553,0.755c0.369-0.378,0.724-0.782,1.048-1.233c0.322-0.449,0.946-0.552,1.395-0.231  c0.449,0.322,0.553,0.946,0.231,1.396c-0.223,0.312-0.464,0.601-0.707,0.885c0.546,0.21,1.099,0.411,1.663,0.598  c0.251-0.326,0.532-0.728,0.812-1.222c0.273-0.479,0.884-0.647,1.363-0.375c0.48,0.272,0.648,0.883,0.376,1.363  c-0.165,0.291-0.348,0.564-0.531,0.836c0.574,0.156,1.155,0.301,1.744,0.432c0.182-0.3,0.384-0.67,0.586-1.131  c0.133-0.305,0.404-0.493,0.706-0.56c-0.186-1.384-0.304-2.736-0.325-4.004c-10.942-2.707-18.06-10.598-18.657-16.864  c-0.388-4.131,1.244-5.895,2.35-6.607c-0.399-1.564-0.638-3.191-0.691-4.866c-0.045-1.446,0.048-2.79,0.242-4.033  c-0.881,0.198-1.895,0.634-2.914,1.359C21.698,21.715,21.993,22.806,22.813,24.015z M47.402,72.517L44.88,87.796  c0.796,0.414,1.629,0.721,2.477,0.954l0.909-16.233H47.402z M25.604,30.501c2.572,7.122,8.653,12.649,16.341,14.856  c-0.275,1.255-0.492,2.743-0.603,4.507c-9.841-2.578-16.206-9.517-16.728-15.007C24.382,32.372,25.021,31.12,25.604,30.501z   M38.846,48.009c0.099,0.03,0.199,0.045,0.297,0.045c0.426,0,0.822-0.275,0.955-0.704l0.135-0.435  c0.164-0.527-0.131-1.088-0.659-1.251c-0.528-0.161-1.088,0.132-1.251,0.659l-0.135,0.435  C38.024,47.286,38.319,47.846,38.846,48.009z M35.32,46.478c0.129,0.055,0.263,0.081,0.395,0.081c0.388,0,0.756-0.227,0.919-0.605  l0.179-0.418c0.218-0.507-0.016-1.095-0.523-1.313c-0.507-0.215-1.096,0.017-1.314,0.524l-0.179,0.418  C34.579,45.671,34.813,46.259,35.32,46.478z M32.018,44.394c0.168,0.109,0.358,0.162,0.545,0.162c0.327,0,0.647-0.16,0.839-0.454  l0.248-0.381c0.301-0.463,0.17-1.082-0.292-1.384c-0.462-0.301-1.083-0.169-1.384,0.292l-0.248,0.381  C31.424,43.473,31.555,44.092,32.018,44.394z M28.999,40.318c-0.424,0.354-0.48,0.984-0.125,1.408  c0.198,0.236,0.481,0.358,0.768,0.358c0.227,0,0.454-0.076,0.641-0.233l0.349-0.292c0.424-0.354,0.48-0.984,0.125-1.408  c-0.354-0.423-0.985-0.48-1.409-0.125L28.999,40.318z M26.534,38.274c0.186,0.32,0.521,0.499,0.867,0.499  c0.17,0,0.342-0.043,0.5-0.135l0.394-0.228c0.478-0.276,0.642-0.888,0.365-1.366c-0.277-0.478-0.888-0.643-1.366-0.364l-0.394,0.228  C26.421,37.184,26.257,37.796,26.534,38.274z M49.44,44.403c-1.737,0-3.425-0.18-5.049-0.51c0.191-1.499,1.066-5.749,0.164-6.894  c-0.344-0.563-1.869-0.403-2.386-0.317c-0.117,0.019-0.208-0.107-0.166-0.218c0.806-2.107,2.021-2.028,2.021-2.028  c0.458-0.554,1.309-1.771,3.069-1.917h2.906c2.228,0,4.5,1.5,5.104,4.396c0.492,2.36,0.968,6.344,1.207,7.029  c-1.549,0.298-3.154,0.459-4.803,0.459H49.44z M47.543,35.972h0.699c0.395,0,0.714-0.32,0.714-0.714s-0.32-0.714-0.714-0.714h-0.699  c-0.395,0-0.714,0.32-0.714,0.714S47.148,35.972,47.543,35.972z M43.289,50.727c0.081-1.98,0.308-3.566,0.596-4.896  c1.786,0.37,3.643,0.572,5.555,0.572h2.067c1.874,0,3.696-0.194,5.451-0.55c0.509,1.576,0.982,3.346,0.982,4.873  c0,8.378-2.882,17.342-3.728,19.791h-6.943C46.355,67.79,43.02,57.322,43.289,50.727z M47.84,62.088  c1.466,0,2.659-1.414,2.659-3.152c0-0.553-0.448-1-1-1s-1,0.447-1,1c0,0.649-0.354,1.152-0.659,1.152s-0.659-0.503-0.659-1.152  c0-0.553-0.448-1-1-1s-1,0.447-1,1C45.181,60.674,46.374,62.088,47.84,62.088z M53.355,63.99c0-0.553-0.448-1-1-1s-1,0.447-1,1  c0,0.649-0.354,1.152-0.659,1.152s-0.659-0.503-0.659-1.152c0-0.553-0.448-1-1-1s-1,0.447-1,1c0,1.738,1.193,3.152,2.659,3.152  S53.355,65.728,53.355,63.99z M55.967,58.936c0-0.553-0.448-1-1-1s-1,0.447-1,1c0,0.649-0.354,1.152-0.659,1.152  s-0.659-0.503-0.659-1.152c0-0.553-0.448-1-1-1s-1,0.447-1,1c0,1.738,1.193,3.152,2.659,3.152S55.967,60.674,55.967,58.936z   M51.669,49.52c0,1.738,1.193,3.152,2.659,3.152s2.659-1.414,2.659-3.152c0-0.553-0.448-1-1-1s-1,0.447-1,1  c0,0.649-0.354,1.152-0.659,1.152s-0.659-0.503-0.659-1.152c0-0.553-0.448-1-1-1S51.669,48.967,51.669,49.52z M49.036,52.779  c-0.552,0-1,0.447-1,1c0,1.738,1.193,3.152,2.659,3.152s2.659-1.414,2.659-3.152c0-0.553-0.448-1-1-1s-1,0.447-1,1  c0,0.649-0.354,1.152-0.659,1.152s-0.659-0.503-0.659-1.152C50.036,53.226,49.588,52.779,49.036,52.779z M44.16,49.52  c0,1.738,1.193,3.152,2.659,3.152s2.659-1.414,2.659-3.152c0-0.553-0.448-1-1-1s-1,0.447-1,1c0,0.649-0.354,1.152-0.659,1.152  S46.16,50.17,46.16,49.52c0-0.553-0.448-1-1-1S44.16,48.967,44.16,49.52z M36.473,58.642c-1.229-0.387-2.421-0.825-3.57-1.313  c-0.121-0.027-0.232-0.075-0.337-0.147c-1.145-0.5-2.249-1.046-3.305-1.64c-0.15-0.043-0.28-0.119-0.397-0.23  c-1.049-0.608-2.053-1.259-3.004-1.954c-0.183-0.065-0.344-0.184-0.464-0.348c-0.957-0.726-1.861-1.494-2.707-2.302  c-0.155-0.084-0.284-0.207-0.378-0.364c-0.879-0.869-1.691-1.781-2.434-2.731c-0.104-0.084-0.184-0.192-0.248-0.313  c-0.831-1.095-1.564-2.241-2.203-3.427c-0.005-0.01-0.011-0.019-0.015-0.029c-1.854-3.451-2.874-7.255-2.874-11.244  c0-2.084,0.257-3.875,0.668-5.419c0.003-0.011,0.005-0.022,0.009-0.033c0.846-3.15,2.345-5.246,3.675-6.568  c2.036-2.021,4.364-2.914,6.077-3.12c1.108-4.175,3.288-6.944,4.583-8.293c-0.647-0.304-1.365-0.494-2.121-0.605  c-1.108,0.934-1.928,2.33-2.246,3.926c-0.095,0.476-0.513,0.805-0.98,0.805c-0.064,0-0.13-0.006-0.196-0.02  c-0.542-0.107-0.893-0.634-0.786-1.176c0.265-1.328,0.807-2.563,1.552-3.604c-0.896,0.077-1.813,0.249-2.726,0.482  c-0.356,0.95-0.667,2.331-0.495,4.076c0.054,0.55-0.347,1.039-0.897,1.094c-0.033,0.003-0.066,0.005-0.099,0.005  c-0.508,0-0.943-0.386-0.994-0.901c-0.135-1.37-0.018-2.557,0.198-3.547c-0.812,0.31-1.599,0.661-2.341,1.048  c-0.106,1.327,0.078,2.737,0.562,4.03c0.194,0.518-0.069,1.094-0.586,1.287c-0.115,0.043-0.234,0.063-0.351,0.063  c-0.405,0-0.786-0.248-0.937-0.649c-0.422-1.126-0.645-2.33-0.7-3.521c-0.432,0.298-0.842,0.602-1.205,0.913  c-0.268,0.229-0.54,0.474-0.813,0.729c0.148,1.05,0.506,2.472,1.35,3.956c0.272,0.48,0.104,1.091-0.375,1.363  c-0.156,0.089-0.326,0.131-0.493,0.131c-0.348,0-0.686-0.182-0.871-0.506c-0.645-1.135-1.044-2.236-1.296-3.211  c-0.562,0.634-1.115,1.326-1.648,2.076c0.138,0.405,0.288,0.795,0.467,1.166c0.401,0.792,0.91,1.542,1.502,2.213  c0.366,0.413,0.327,1.046-0.086,1.411c-0.19,0.168-0.427,0.251-0.662,0.251c-0.277,0-0.552-0.114-0.75-0.338  c-0.702-0.793-1.303-1.68-1.788-2.634c-0.415,0.731-0.805,1.507-1.161,2.331c0.48,0.757,1.262,1.725,2.497,2.62  c0.447,0.323,0.547,0.948,0.224,1.396c-0.196,0.271-0.501,0.414-0.811,0.414c-0.203,0-0.408-0.062-0.585-0.19  c-0.911-0.659-1.617-1.357-2.166-2.012c-0.252,0.786-0.465,1.617-0.648,2.477c0.617,0.607,1.536,1.341,2.855,1.94  c0.503,0.229,0.725,0.821,0.497,1.323c-0.167,0.369-0.531,0.587-0.911,0.587c-0.139,0-0.279-0.028-0.413-0.09  c-0.974-0.442-1.775-0.953-2.424-1.453c-0.099,0.808-0.154,1.655-0.185,2.522c0.883,0.593,1.993,1.099,3.145,1.404  c0.534,0.142,0.852,0.689,0.71,1.223c-0.119,0.448-0.523,0.744-0.966,0.744c-0.084,0-0.171-0.011-0.257-0.033  c-0.928-0.246-1.815-0.6-2.63-1.019c0.04,0.85,0.124,1.693,0.244,2.531c1.054,0.495,2.13,0.8,3.275,0.906  c0.55,0.052,0.955,0.539,0.903,1.089c-0.048,0.519-0.484,0.907-0.995,0.907c-0.031,0-0.062-0.001-0.093-0.004  c-0.92-0.086-1.799-0.283-2.659-0.573c0.195,0.838,0.427,1.668,0.699,2.488c0.814,0.222,1.924,0.422,3.232,0.348  c0.552-0.026,1.024,0.391,1.055,0.942c0.031,0.551-0.391,1.023-0.942,1.054c-0.227,0.013-0.45,0.02-0.667,0.02  c-0.667,0-1.275-0.063-1.834-0.148c0.34,0.801,0.713,1.59,1.124,2.367c0.91,0.107,1.963,0.061,2.973-0.152  c0.544-0.114,1.071,0.233,1.184,0.773c0.114,0.54-0.232,1.07-0.773,1.184c-0.825,0.174-1.559,0.234-2.202,0.246  c0.458,0.731,0.952,1.448,1.473,2.152c0.882-0.054,1.749-0.226,2.584-0.528c0.518-0.185,1.093,0.081,1.281,0.6  c0.188,0.52-0.081,1.093-0.6,1.281c-0.592,0.214-1.198,0.378-1.814,0.49c0.554,0.655,1.141,1.291,1.749,1.916  c0.758-0.182,1.496-0.435,2.188-0.8c0.489-0.256,1.093-0.071,1.351,0.418c0.258,0.488,0.071,1.093-0.417,1.352  c-0.473,0.25-0.962,0.461-1.463,0.641c0.631,0.576,1.289,1.135,1.966,1.678c0.622-0.248,1.222-0.549,1.774-0.938  c0.452-0.317,1.077-0.21,1.393,0.241c0.318,0.452,0.21,1.076-0.242,1.394c-0.36,0.253-0.74,0.471-1.125,0.676  c0.697,0.501,1.419,0.982,2.156,1.449c0.426-0.252,0.938-0.601,1.454-1.076c0.407-0.374,1.039-0.347,1.413,0.06  c0.374,0.407,0.347,1.04-0.06,1.413c-0.291,0.268-0.605,0.506-0.922,0.739c0.74,0.42,1.501,0.818,2.274,1.202  c0.435-0.334,0.848-0.701,1.212-1.131c0.358-0.421,0.989-0.472,1.41-0.113c0.421,0.358,0.472,0.989,0.114,1.41  c-0.233,0.274-0.491,0.521-0.749,0.765c0.777,0.343,1.567,0.671,2.372,0.977c0.38-0.382,0.735-0.792,1.034-1.251  c0.302-0.463,0.921-0.597,1.384-0.293c0.463,0.301,0.594,0.92,0.293,1.383c-0.202,0.311-0.432,0.599-0.666,0.884  c0.809,0.268,1.629,0.518,2.462,0.748c0.284-0.349,0.601-0.805,0.889-1.392c0.243-0.496,0.841-0.704,1.338-0.457  c0.496,0.242,0.701,0.842,0.458,1.338c-0.193,0.394-0.399,0.732-0.605,1.043c0.395,0.092,0.794,0.174,1.193,0.257l2.543-6.357  c-1.533-0.294-3.02-0.666-4.456-1.11C36.603,58.689,36.537,58.672,36.473,58.642z M50.268,72.517l-0.93,16.62  c0.897,0.097,1.801,0.097,2.698,0.001l-0.921-16.621H50.268z M49.286,31.6c-3.55,0-6.439-2.889-6.439-6.439  c0-3.55,2.889-6.438,6.439-6.438s6.439,2.889,6.439,6.438C55.725,28.712,52.836,31.6,49.286,31.6z M49.286,28.936  c2.082,0,3.775-1.693,3.775-3.775c0-2.081-1.693-3.774-3.775-3.774s-3.775,1.693-3.775,3.774  C45.511,27.243,47.205,28.936,49.286,28.936z M92.421,30.366c-0.381,0-0.744-0.218-0.911-0.587  c-0.229-0.503-0.006-1.096,0.497-1.323c1.317-0.598,2.236-1.332,2.854-1.939c-0.183-0.861-0.396-1.691-0.648-2.478  c-0.548,0.656-1.256,1.354-2.167,2.013c-0.177,0.128-0.382,0.189-0.585,0.189c-0.311,0-0.615-0.144-0.812-0.414  c-0.323-0.447-0.223-1.072,0.225-1.396c1.235-0.893,2.017-1.862,2.497-2.619c-0.356-0.824-0.746-1.601-1.162-2.332  c-0.491,0.963-1.088,1.846-1.786,2.636c-0.197,0.224-0.473,0.338-0.749,0.338c-0.235,0-0.472-0.083-0.662-0.251  c-0.414-0.365-0.453-0.997-0.087-1.411c0.593-0.672,1.102-1.422,1.51-2.229c0.172-0.356,0.321-0.743,0.459-1.149  c-0.533-0.75-1.086-1.443-1.648-2.077c-0.253,0.975-0.652,2.076-1.296,3.211c-0.184,0.324-0.522,0.506-0.87,0.506  c-0.167,0-0.337-0.042-0.493-0.131c-0.48-0.272-0.648-0.883-0.375-1.363c0.843-1.483,1.201-2.905,1.349-3.956  c-0.274-0.255-0.546-0.499-0.814-0.729c-0.363-0.311-0.773-0.615-1.205-0.913c-0.056,1.191-0.279,2.395-0.701,3.521  c-0.15,0.401-0.531,0.649-0.937,0.649c-0.117,0-0.235-0.021-0.351-0.063c-0.518-0.194-0.779-0.771-0.586-1.287  c0.485-1.294,0.669-2.703,0.563-4.029c-0.742-0.387-1.529-0.739-2.341-1.049c0.216,0.99,0.333,2.177,0.197,3.547  c-0.051,0.516-0.486,0.901-0.994,0.901c-0.033,0-0.066-0.002-0.1-0.005c-0.55-0.055-0.951-0.544-0.896-1.094  c0.173-1.745-0.138-3.126-0.495-4.076c-0.913-0.233-1.83-0.404-2.725-0.482c0.745,1.041,1.286,2.276,1.55,3.603  c0.108,0.542-0.244,1.068-0.785,1.176c-0.066,0.014-0.132,0.02-0.196,0.02c-0.468,0-0.885-0.329-0.979-0.805  c-0.318-1.596-1.138-2.992-2.246-3.926c-0.756,0.111-1.474,0.301-2.121,0.604c1.296,1.35,3.478,4.121,4.586,8.301  c1.747,0.217,4.033,1.084,6.075,3.112c1.33,1.321,2.829,3.417,3.675,6.567c0.004,0.012,0.006,0.024,0.01,0.036  c0.411,1.543,0.668,3.334,0.668,5.416c0,3.988-1.02,7.792-2.873,11.242c-0.005,0.012-0.012,0.022-0.018,0.033  c-0.639,1.186-1.372,2.331-2.202,3.425c-0.064,0.12-0.144,0.228-0.248,0.312c-0.743,0.95-1.555,1.862-2.434,2.731  c-0.094,0.157-0.222,0.28-0.377,0.364c-0.847,0.808-1.75,1.577-2.708,2.303c-0.12,0.163-0.28,0.281-0.462,0.346  c-0.952,0.695-1.957,1.347-3.007,1.956c-0.117,0.11-0.246,0.186-0.395,0.229c-1.057,0.594-2.161,1.141-3.306,1.641  c-0.106,0.072-0.216,0.12-0.337,0.147c-1.149,0.489-2.341,0.927-3.57,1.313c-0.064,0.029-0.129,0.046-0.197,0.061  c-1.32,0.408-2.682,0.755-4.084,1.036l2.541,6.352c0.274-0.059,0.55-0.116,0.822-0.179c-0.205-0.311-0.411-0.648-0.605-1.043  c-0.243-0.496-0.038-1.096,0.458-1.338c0.496-0.248,1.094-0.039,1.338,0.457c0.288,0.587,0.605,1.042,0.889,1.392  c0.833-0.23,1.653-0.48,2.462-0.748c-0.234-0.284-0.463-0.573-0.666-0.884c-0.301-0.463-0.17-1.082,0.293-1.383  c0.463-0.304,1.083-0.17,1.384,0.293c0.299,0.459,0.654,0.869,1.034,1.251c0.806-0.306,1.595-0.634,2.373-0.977  c-0.258-0.245-0.515-0.491-0.749-0.765c-0.358-0.421-0.307-1.052,0.114-1.41c0.42-0.358,1.052-0.308,1.41,0.113  c0.365,0.429,0.778,0.797,1.213,1.13c0.773-0.384,1.534-0.782,2.273-1.202c-0.318-0.233-0.631-0.471-0.922-0.739  c-0.406-0.374-0.434-1.007-0.06-1.413c0.375-0.407,1.008-0.433,1.413-0.06c0.442,0.407,0.948,0.757,1.47,1.065  c0.731-0.464,1.448-0.941,2.14-1.439c-0.385-0.206-0.766-0.423-1.125-0.676c-0.451-0.317-0.56-0.941-0.241-1.394  c0.317-0.452,0.939-0.559,1.394-0.241c0.552,0.388,1.152,0.689,1.773,0.938c0.677-0.544,1.334-1.102,1.966-1.678  c-0.501-0.18-0.99-0.391-1.463-0.641c-0.488-0.259-0.676-0.863-0.418-1.352c0.259-0.488,0.864-0.674,1.352-0.418  c0.691,0.365,1.43,0.618,2.188,0.8c0.608-0.624,1.195-1.261,1.749-1.916c-0.615-0.112-1.221-0.275-1.814-0.49  c-0.519-0.188-0.787-0.762-0.6-1.281c0.188-0.519,0.763-0.789,1.281-0.6c0.833,0.302,1.701,0.474,2.583,0.528  c0.521-0.704,1.014-1.42,1.473-2.152c-0.643-0.013-1.376-0.073-2.203-0.246c-0.54-0.113-0.886-0.644-0.772-1.185  c0.113-0.54,0.646-0.887,1.185-0.772c1.289,0.271,2.338,0.233,2.968,0.161c0.413-0.78,0.789-1.573,1.13-2.377  c-0.559,0.086-1.166,0.148-1.834,0.148c-0.218,0-0.44-0.007-0.667-0.02c-0.552-0.03-0.974-0.503-0.942-1.054  c0.03-0.553,0.51-0.973,1.054-0.942c1.316,0.075,2.421-0.125,3.232-0.348c0.272-0.82,0.504-1.651,0.699-2.489  c-0.86,0.289-1.739,0.487-2.659,0.573c-0.031,0.003-0.063,0.004-0.094,0.004c-0.511,0-0.946-0.389-0.995-0.907  c-0.051-0.55,0.354-1.037,0.903-1.089c1.147-0.106,2.222-0.412,3.276-0.905c0.12-0.838,0.204-1.682,0.244-2.532  c-0.814,0.419-1.702,0.773-2.63,1.019c-0.086,0.022-0.172,0.033-0.257,0.033c-0.442,0-0.847-0.296-0.966-0.744  c-0.142-0.533,0.177-1.081,0.711-1.223c1.153-0.306,2.262-0.811,3.145-1.404c-0.031-0.867-0.085-1.715-0.185-2.523  c-0.649,0.5-1.45,1.012-2.424,1.454C92.699,30.337,92.559,30.366,92.421,30.366z M54.018,88.755  c0.854-0.234,1.692-0.543,2.493-0.959l-2.522-15.278h-0.871L54.018,88.755z M38.965,70.603l3.813,3.66l2.64-2.973  c-0.487-1.433-1.777-5.383-2.79-9.841L38.965,70.603z M58.585,74.252l3.8-3.648l-3.643-9.107c-0.952,4.676-2.2,8.431-2.686,9.812  L58.585,74.252z M78.324,35.045c-0.591,6.218-7.604,14.034-18.402,16.8c-0.038,1.401-0.146,2.801-0.303,4.175  c0.181,0.103,0.34,0.248,0.429,0.454c0.202,0.462,0.403,0.831,0.585,1.131c0.59-0.131,1.17-0.277,1.744-0.432  c-0.183-0.272-0.366-0.545-0.531-0.836c-0.272-0.48-0.104-1.091,0.376-1.363c0.481-0.272,1.091-0.104,1.363,0.375  c0.28,0.494,0.562,0.896,0.812,1.222c0.564-0.187,1.117-0.388,1.663-0.598c-0.243-0.284-0.484-0.573-0.707-0.885  c-0.322-0.449-0.218-1.073,0.231-1.396c0.45-0.32,1.073-0.218,1.395,0.231c0.324,0.452,0.68,0.855,1.048,1.233  c0.529-0.239,1.044-0.493,1.552-0.755c-0.319-0.293-0.632-0.598-0.924-0.928c-0.367-0.413-0.33-1.045,0.083-1.412  c0.414-0.366,1.047-0.329,1.412,0.084c0.404,0.454,0.847,0.852,1.306,1.221c0.491-0.294,0.968-0.601,1.436-0.915  c-0.385-0.27-0.758-0.556-1.117-0.873c-0.414-0.364-0.454-0.996-0.089-1.411c0.365-0.414,0.997-0.455,1.412-0.089  c0.484,0.426,1.003,0.783,1.546,1.112c0.447-0.347,0.876-0.707,1.296-1.074c-0.421-0.215-0.874-0.467-1.366-0.79  c-0.462-0.303-0.59-0.923-0.287-1.385c0.305-0.461,0.925-0.59,1.385-0.287c0.706,0.463,1.327,0.776,1.831,0.994  c0.399-0.406,0.783-0.822,1.151-1.246c-0.544-0.178-1.084-0.391-1.617-0.641c-0.501-0.234-0.716-0.829-0.481-1.329  c0.233-0.5,0.829-0.717,1.329-0.481c0.7,0.328,1.414,0.561,2.129,0.742c0.328-0.45,0.645-0.907,0.939-1.373  c-0.606-0.09-1.228-0.222-1.863-0.4c-0.531-0.149-0.842-0.701-0.692-1.233s0.701-0.841,1.233-0.692  c0.831,0.233,1.641,0.356,2.407,0.412c0.254-0.501,0.483-1.012,0.698-1.527c-0.198,0.009-0.393,0.027-0.593,0.027  c-0.51,0-1.026-0.03-1.55-0.091c-0.549-0.063-0.941-0.56-0.878-1.108c0.063-0.547,0.562-0.942,1.108-0.878  c0.917,0.107,1.805,0.097,2.655-0.014c0.167-0.549,0.318-1.103,0.441-1.665c-0.755,0.187-1.548,0.32-2.382,0.381  c-0.024,0.002-0.05,0.003-0.074,0.003c-0.519,0-0.957-0.4-0.996-0.927c-0.041-0.551,0.373-1.03,0.924-1.07  c1.044-0.077,2.01-0.274,2.888-0.574c0.066-0.59,0.102-1.186,0.118-1.786c-0.776,0.353-1.611,0.667-2.506,0.911  c-0.088,0.023-0.177,0.035-0.265,0.035c-0.439,0-0.842-0.292-0.964-0.736c-0.146-0.532,0.168-1.083,0.701-1.229  c0.909-0.248,1.758-0.563,2.522-0.936c0.172-0.081,0.307-0.168,0.462-0.253c-0.046-0.614-0.116-1.196-0.209-1.746  c-0.751,0.504-1.57,0.956-2.468,1.338c-0.127,0.054-0.26,0.079-0.391,0.079c-0.389,0-0.759-0.229-0.921-0.609  c-0.216-0.508,0.021-1.095,0.53-1.312c1.041-0.442,1.96-0.983,2.757-1.603c-0.171-0.554-0.366-1.064-0.576-1.538  c-0.565,0.632-1.267,1.258-2.103,1.862c-0.177,0.127-0.382,0.188-0.584,0.188c-0.311,0-0.616-0.144-0.813-0.415  c-0.322-0.448-0.222-1.073,0.227-1.396c0.889-0.641,1.597-1.296,2.104-1.947c0.051-0.064,0.085-0.123,0.132-0.186  c-0.322-0.479-0.653-0.898-0.98-1.26c-0.262,0.928-0.673,1.845-1.263,2.714c-0.193,0.285-0.508,0.438-0.828,0.438  c-0.193,0-0.389-0.056-0.561-0.173c-0.457-0.31-0.576-0.932-0.266-1.389c0.821-1.209,1.115-2.301,1.202-3.117  c-1.018-0.725-2.03-1.16-2.913-1.357c0.193,1.242,0.287,2.586,0.242,4.032c-0.053,1.676-0.292,3.302-0.691,4.866  C77.081,29.15,78.712,30.914,78.324,35.045z M30.709,82.303c-0.286,0.485-0.532,1.223-0.532,1.826c0,1.8,1.465,3.265,3.265,3.265  c1.801,0,3.265-1.465,3.265-3.265c0-1.801-1.465-3.266-3.265-3.266c-0.388,0-0.755,0.08-1.1,0.204l0.497,1.682  C32.839,82.75,31.186,82.568,30.709,82.303z M68.362,76.887l0.692-3.186l-2.698-0.646l0.466-1.945l2.031,0.486  c-0.138-1.274-0.179-2.794-0.063-3.656c0.119-0.895,0.55-1.627,1.213-2.063c0.604-0.396,1.328-0.504,2.041-0.302  c0.647,0.184,1.176,0.611,1.489,1.204c0.393,0.745,0.426,1.702,0.093,2.693c-0.218,0.65-0.848,1.89-1.49,2.896l2.073,0.48  l-0.451,1.949l-2.755-0.639l-0.656,3.019c-0.388-0.234-0.835-0.363-1.3-0.334L68.362,76.887z M70.78,70.752  c0.422-0.729,0.816-1.519,0.949-1.914c0.153-0.455,0.166-0.876,0.034-1.125c-0.059-0.111-0.141-0.178-0.265-0.213  c-0.054-0.015-0.105-0.022-0.155-0.022c-0.088,0-0.169,0.024-0.243,0.072c-0.17,0.112-0.287,0.345-0.329,0.654  C70.696,68.776,70.708,69.795,70.78,70.752z M68.571,82.75l0.497-1.682c-0.345-0.125-0.712-0.204-1.1-0.204  c-1.801,0-3.265,1.465-3.265,3.266c0,1.8,1.465,3.265,3.265,3.265c1.801,0,3.265-1.465,3.265-3.265c0-0.603-0.247-1.341-0.532-1.826  C70.224,82.568,68.571,82.75,68.571,82.75z"></path></svg></g></svg>